<svg width="49" height="48" viewBox="0 0 49 48" fill="none" xmlns="http://www.w3.org/2000/svg">
<g clip-path="url(#clip0_4_65)">
<path d="M48.991 24C48.991 10.7452 38.2458 0 24.991 0C11.7361 0 0.990967 10.7452 0.990967 24C0.990967 35.9789 9.76737 45.908 21.241 47.7084V30.9375H15.1472V24H21.241V18.7125C21.241 12.6975 24.8241 9.375 30.3061 9.375C32.9311 9.375 35.6785 9.84375 35.6785 9.84375V15.75H32.6522C29.671 15.75 28.741 17.6002 28.741 19.5V24H35.3972L34.3332 30.9375H28.741V47.7084C40.2146 45.908 48.991 35.9789 48.991 24Z" fill="white"/>
</g>
<defs>
<clipPath id="clip0_4_65">
<rect width="48" height="48" fill="white" transform="translate(0.990967)"/>
</clipPath>
</defs>
</svg>
