<svg width="48" height="48" viewBox="0 0 48 48" fill="none" xmlns="http://www.w3.org/2000/svg">
<g clip-path="url(#clip0_4_54)">
<path fill-rule="evenodd" clip-rule="evenodd" d="M24.9915 1C19.294 1.00296 13.7832 3.02092 9.44471 6.69305C5.10618 10.3652 2.22277 15.452 1.31006 21.044C0.397338 26.636 1.51482 32.3684 4.46271 37.2164C7.4106 42.0643 11.9966 45.7115 17.4008 47.5059C18.5931 47.7272 19.0422 46.9883 19.0422 46.36C19.0422 45.7317 19.0183 43.91 19.0104 41.9184C12.3338 43.3608 10.9229 39.101 10.9229 39.101C9.83402 36.3349 8.26024 35.6078 8.26024 35.6078C6.0824 34.1299 8.42319 34.1576 8.42319 34.1576C10.8355 34.3275 12.1033 36.6194 12.1033 36.6194C14.2414 40.2667 17.7188 39.2116 19.0859 38.5952C19.3005 37.0501 19.9244 35.999 20.612 35.4023C15.2786 34.8017 9.67504 32.7548 9.67504 23.6108C9.64199 21.2394 10.527 18.9461 12.147 17.2054C11.9006 16.6047 11.0779 14.1785 12.3815 10.8829C12.3815 10.8829 14.3964 10.2427 18.9826 13.3289C22.9163 12.2592 27.0667 12.2592 31.0004 13.3289C35.5827 10.2427 37.5936 10.8829 37.5936 10.8829C38.9011 14.1706 38.0784 16.5968 37.832 17.2054C39.4571 18.9464 40.344 21.2437 40.3079 23.6187C40.3079 32.7824 34.6924 34.8017 29.3512 35.3905C30.2096 36.1334 30.9766 37.5836 30.9766 39.8122C30.9766 43.0051 30.9488 45.5736 30.9488 46.36C30.9488 46.9962 31.3819 47.7391 32.598 47.5059C38.0029 45.7113 42.5894 42.0634 45.5372 37.2147C48.485 32.3659 49.6019 26.6326 48.6882 21.0401C47.7744 15.4476 44.8896 10.3607 40.5496 6.68921C36.2097 3.01771 30.6977 1.00108 24.9994 1H24.9915Z" fill="white"/>
<path d="M10.0798 35.264C10.0282 35.3826 9.83742 35.4181 9.68242 35.3351C9.52743 35.2522 9.41219 35.098 9.46783 34.9755C9.52346 34.853 9.71025 34.8214 9.86524 34.9044C10.0202 34.9874 10.1395 35.1455 10.0798 35.264Z" fill="white"/>
<path d="M11.0535 36.3428C10.9712 36.384 10.8771 36.3955 10.7872 36.3753C10.6973 36.3551 10.6173 36.3045 10.5608 36.2321C10.4058 36.0662 10.374 35.837 10.4932 35.7342C10.6124 35.6315 10.827 35.6789 10.982 35.8449C11.137 36.0108 11.1728 36.24 11.0535 36.3428Z" fill="white"/>
<path d="M11.9995 37.714C11.8524 37.8167 11.602 37.714 11.4629 37.5085C11.4245 37.4716 11.3939 37.4274 11.373 37.3785C11.3521 37.3297 11.3413 37.2771 11.3413 37.224C11.3413 37.1709 11.3521 37.1183 11.373 37.0694C11.3939 37.0205 11.4245 36.9763 11.4629 36.9395C11.61 36.8407 11.8604 36.9395 11.9995 37.141C12.1386 37.3425 12.1425 37.6112 11.9995 37.714Z" fill="white"/>
<path d="M13.2831 39.0417C13.1519 39.1879 12.8857 39.1484 12.6671 38.9508C12.4485 38.7532 12.3968 38.4845 12.528 38.3423C12.6591 38.2 12.9254 38.2395 13.1519 38.4331C13.3784 38.6268 13.4222 38.8994 13.2831 39.0417Z" fill="white"/>
<path d="M15.0833 39.8162C15.0237 40.0019 14.7535 40.0849 14.4832 40.0059C14.213 39.9268 14.0341 39.7055 14.0858 39.5159C14.1375 39.3262 14.4117 39.2393 14.6859 39.3262C14.9601 39.4131 15.135 39.6226 15.0833 39.8162Z" fill="white"/>
<path d="M17.0466 39.9505C17.0466 40.1442 16.8241 40.3101 16.5379 40.3141C16.2518 40.318 16.0173 40.16 16.0173 39.9663C16.0173 39.7727 16.2399 39.6067 16.526 39.6028C16.8122 39.5988 17.0466 39.753 17.0466 39.9505Z" fill="white"/>
<path d="M18.8748 39.6463C18.9105 39.8399 18.7118 40.0414 18.4257 40.0888C18.1395 40.1363 17.8892 40.0217 17.8534 39.832C17.8176 39.6423 18.0243 39.4368 18.3025 39.3855C18.5807 39.3341 18.839 39.4526 18.8748 39.6463Z" fill="white"/>
</g>
<defs>
<clipPath id="clip0_4_54">
<rect width="48" height="48" fill="white"/>
</clipPath>
</defs>
</svg>
