<svg width="49" height="48" viewBox="0 0 49 48" fill="none" xmlns="http://www.w3.org/2000/svg">
<g clip-path="url(#clip0_4_66)">
<path fill-rule="evenodd" clip-rule="evenodd" d="M34.6776 13.0957C32.1996 10.7323 28.8926 9.44473 25.4709 9.49764C19.2097 9.49764 13.8921 13.7217 11.996 19.4097C10.9907 22.3904 10.9907 25.6182 11.996 28.5989H12.0048C13.9097 34.2781 19.2185 38.5023 25.4797 38.5023C28.7118 38.5023 31.4865 37.6756 33.6371 36.2154V36.2095C36.168 34.5339 37.8965 31.8971 38.4344 28.9164H25.4709V19.6745H48.1085C48.3907 21.2795 48.523 22.9197 48.523 24.5512C48.523 31.8509 45.9142 38.0225 41.3751 42.2024L41.3798 42.2061C37.4026 45.8747 31.9438 48 25.4709 48C16.3965 48 8.09815 42.8851 4.02393 34.7808C0.619946 27.9993 0.619954 20.0095 4.02395 13.228C8.09817 5.11482 16.3965 -6.11346e-05 25.4709 -6.11346e-05C31.4323 -0.0706105 37.1909 2.16933 41.5297 6.24356L34.6776 13.0957Z" fill="white"/>
</g>
<defs>
<clipPath id="clip0_4_66">
<rect width="48" height="48" fill="white" transform="translate(0.990967)"/>
</clipPath>
</defs>
</svg>
