<svg width="49" height="48" viewBox="0 0 49 48" fill="none" xmlns="http://www.w3.org/2000/svg">
<g clip-path="url(#clip0_4_53)">
<path d="M45.4378 0H4.53472C2.57534 0 0.990967 1.54688 0.990967 3.45938V44.5312C0.990967 46.4437 2.57534 48 4.53472 48H45.4378C47.3972 48 48.991 46.4438 48.991 44.5406V3.45938C48.991 1.54688 47.3972 0 45.4378 0ZM15.2316 40.9031H8.10659V17.9906H15.2316V40.9031ZM11.6691 14.8688C9.38159 14.8688 7.53472 13.0219 7.53472 10.7437C7.53472 8.46562 9.38159 6.61875 11.6691 6.61875C13.9472 6.61875 15.7941 8.46562 15.7941 10.7437C15.7941 13.0125 13.9472 14.8688 11.6691 14.8688ZM41.8941 40.9031H34.7785V29.7656C34.7785 27.1125 34.7316 23.6906 31.0753 23.6906C27.3722 23.6906 26.8097 26.5875 26.8097 29.5781V40.9031H19.7035V17.9906H26.5285V21.1219H26.6222C27.5691 19.3219 29.8941 17.4188 33.3535 17.4188C40.5628 17.4188 41.8941 22.1625 41.8941 28.3313V40.9031Z" fill="white"/>
</g>
<defs>
<clipPath id="clip0_4_53">
<rect width="48" height="48" fill="white" transform="translate(0.990967)"/>
</clipPath>
</defs>
</svg>
